<svg xmlns="http://www.w3.org/2000/svg" viewBox="0 0 440 440" font-family="sans-serif" font-size="12">
<rect x="0" y="0" width="440" height="440" fill="white"/>
<line x1="50" y1="50" x2="50" y2="390" stroke="#222"/>
<line x1="50" y1="390" x2="390" y2="390" stroke="#222"/>
<line x1="50" y1="390" x2="390" y2="50" stroke="#bbb" stroke-dasharray="4 4"/>
<text x="220.0" y="428" text-anchor="middle">False-alarm rate (FPR)</text>
<text x="14" y="220.0" text-anchor="middle" transform="rotate(-90 14 220.0)">Recall (TPR)</text>
<text x="50.0" y="406" text-anchor="middle" fill="#555">0.0</text>
<text x="42" y="394.0" text-anchor="end" fill="#555">0.0</text>
<text x="220.0" y="406" text-anchor="middle" fill="#555">0.5</text>
<text x="42" y="224.0" text-anchor="end" fill="#555">0.5</text>
<text x="390.0" y="406" text-anchor="middle" fill="#555">1.0</text>
<text x="42" y="54.0" text-anchor="end" fill="#555">1.0</text>
<polyline points="50.0,390.0 50.0,386.5 50.0,365.5 51.8,365.5 51.8,362.0 53.7,362.0 53.7,358.5 55.5,358.5 55.5,344.4 61.0,344.4 61.0,340.9 75.7,340.9 75.7,337.4 77.6,337.4 77.6,333.9 83.1,333.9 83.1,326.9 94.1,326.9 94.1,323.4 103.3,323.4 103.3,319.9 107.0,319.9 107.0,316.4 108.8,316.4 108.8,305.9 110.6,305.9 110.6,302.4 112.5,302.4 112.5,291.9 116.2,291.9 116.2,256.8 118.0,256.8 118.0,246.3 119.8,246.3 119.8,242.8 123.5,242.8 123.5,239.3 125.4,239.3 125.4,211.2 127.2,211.2 127.2,207.7 129.0,207.7 129.0,197.2 130.9,197.2 130.9,190.2 134.5,190.2 134.5,169.2 140.1,169.2 140.1,162.2 145.6,162.2 145.6,148.1 147.4,148.1 147.4,127.1 149.2,127.1 149.2,120.1 156.6,120.1 156.6,116.6 162.1,116.6 162.1,113.1 163.9,113.1 163.9,109.6 173.1,109.6 173.1,106.1 187.8,106.1 187.8,102.6 191.5,102.6 191.5,99.1 200.7,99.1 200.7,95.6 206.2,95.6 206.2,92.1 215.4,92.1 215.4,85.1 217.2,85.1 217.2,81.5 237.5,81.5 237.5,78.0 241.1,78.0 241.1,74.5 254.0,74.5 254.0,71.0 261.4,71.0 261.4,67.5 274.2,67.5 274.2,64.0 281.6,64.0 281.6,60.5 333.0,60.5 333.0,57.0 347.7,57.0 347.7,53.5 371.6,53.5 371.6,50.0 390.0,50.0" fill="none" stroke="#2563eb" stroke-width="2"/>
<rect x="60" y="47" width="12" height="3" fill="#2563eb"/>
<text x="78" y="52">in_distribution (AUROC 0.75)</text>
<polyline points="50.0,390.0 51.8,390.0 57.4,390.0 57.4,386.5 61.0,386.5 61.0,383.0 62.9,383.0 62.9,379.5 64.7,379.5 64.7,376.0 66.5,376.0 66.5,358.5 75.7,358.5 75.7,351.4 79.4,351.4 79.4,347.9 83.1,347.9 83.1,340.9 88.6,340.9 88.6,337.4 90.4,337.4 90.4,330.4 97.8,330.4 97.8,323.4 99.6,323.4 99.6,316.4 103.3,316.4 103.3,288.4 110.6,288.4 110.6,284.8 114.3,284.8 114.3,277.8 116.2,277.8 116.2,274.3 118.0,274.3 118.0,260.3 119.8,260.3 119.8,256.8 129.0,256.8 129.0,253.3 138.2,253.3 138.2,249.8 140.1,249.8 140.1,242.8 145.6,242.8 145.6,239.3 154.8,239.3 154.8,228.8 156.6,228.8 156.6,225.3 178.6,225.3 178.6,221.8 180.5,221.8 180.5,218.2 182.3,218.2 182.3,214.7 184.2,214.7 184.2,204.2 193.4,204.2 193.4,197.2 197.0,197.2 197.0,193.7 200.7,193.7 200.7,190.2 202.5,190.2 202.5,186.7 208.1,186.7 208.1,179.7 213.6,179.7 213.6,176.2 217.2,176.2 217.2,172.7 226.4,172.7 226.4,165.7 233.8,165.7 233.8,158.7 235.6,158.7 235.6,151.6 237.5,151.6 237.5,148.1 239.3,148.1 239.3,137.6 243.0,137.6 243.0,123.6 255.8,123.6 255.8,120.1 261.4,120.1 261.4,113.1 263.2,113.1 263.2,109.6 274.2,109.6 274.2,106.1 285.2,106.1 285.2,102.6 290.8,102.6 290.8,92.1 294.4,92.1 294.4,81.5 307.3,81.5 307.3,74.5 309.1,74.5 309.1,71.0 314.6,71.0 314.6,67.5 323.8,67.5 323.8,64.0 329.4,64.0 329.4,60.5 333.0,60.5 333.0,57.0 367.9,57.0 367.9,53.5 371.6,53.5 371.6,50.0 390.0,50.0" fill="none" stroke="#dc2626" stroke-width="2"/>
<rect x="60" y="65" width="12" height="3" fill="#dc2626"/>
<text x="78" y="70">leakage_removed (AUROC 0.62)</text>
</svg>